<svg xmlns="http://www.w3.org/2000/svg" viewBox="0 0 80 80" role="img" aria-labelledby="title">
  <title>Art Sprint Studio</title>
  <defs>
    <linearGradient id="art-bg" x1="0" y1="0" x2="1" y2="1">
      <stop offset="0%" stop-color="#ea580c" />
      <stop offset="100%" stop-color="#f97316" />
    </linearGradient>
  </defs>
  <rect x="4" y="4" width="72" height="72" rx="18" fill="url(#art-bg)" />
  <path d="M26 54c8 2 18-6 20-12 2-6-6-14-12-12-4 2-2 6-4 10s-6 6-4 14z" fill="#fff7ed" opacity="0.9" />
  <circle cx="52" cy="30" r="12" fill="#1f2937" opacity="0.15" />
  <path d="M44 22l6 6" stroke="#fff" stroke-width="3" stroke-linecap="round" opacity="0.6" />
  <path d="M50 28l8 8" stroke="#fff" stroke-width="3" stroke-linecap="round" opacity="0.4" />
  <path d="M24 44c4-2 8 2 10 4" stroke="#facc15" stroke-width="4" stroke-linecap="round" />
  <path d="M32 36l6 6" stroke="#f97316" stroke-width="4" stroke-linecap="round" />
  <circle cx="48" cy="48" r="5" fill="#facc15" />
  <circle cx="38" cy="50" r="3" fill="#fb923c" />
  <circle cx="56" cy="36" r="3" fill="#f97316" opacity="0.6" />
</svg>
