<svg xmlns="http://www.w3.org/2000/svg" viewBox="0 0 96 96" role="img" aria-labelledby="title">
  <title>Chemistry Honors</title>
  <defs>
    <linearGradient id="chem-bg" x1="0" y1="0" x2="1" y2="1">
      <stop offset="0%" stop-color="#0f172a" />
      <stop offset="100%" stop-color="#38bdf8" />
    </linearGradient>
  </defs>
  <rect x="6" y="6" width="84" height="84" rx="22" fill="url(#chem-bg)" />
  <path d="M34 24h12l4 28c1.5 10-7 18-16 18s-17-8-16-18z" fill="#f8fafc" opacity="0.9" />
  <path d="M58 24h12l2 30c1 10-6 18-14 18s-15-8-14-18z" fill="#f1f5f9" opacity="0.85" />
  <circle cx="38" cy="30" r="4" fill="#38bdf8" />
  <circle cx="34" cy="40" r="3" fill="#0ea5e9" />
  <circle cx="62" cy="32" r="4" fill="#fb7185" />
  <circle cx="58" cy="42" r="3" fill="#facc15" />
  <path d="M30 62c8-4 28-4 36 0" stroke="#1d4ed8" stroke-width="4" stroke-linecap="round" opacity="0.4" />
  <circle cx="46" cy="52" r="2" fill="#fbbf24" />
  <circle cx="52" cy="56" r="2" fill="#f472b6" />
</svg>
