<svg xmlns="http://www.w3.org/2000/svg" viewBox="0 0 96 96" role="img" aria-labelledby="title">
  <title>English Literature</title>
  <defs>
    <linearGradient id="english-bg" x1="0" y1="0" x2="1" y2="1">
      <stop offset="0%" stop-color="#7c2d12" />
      <stop offset="100%" stop-color="#f97316" />
    </linearGradient>
  </defs>
  <rect x="6" y="6" width="84" height="84" rx="22" fill="url(#english-bg)" />
  <path d="M30 26h20a8 8 0 0 1 8 8v32H38a8 8 0 0 0-8 8z" fill="#fff7ed" opacity="0.9" />
  <path d="M66 26H46a8 8 0 0 0-8 8v32h20a8 8 0 0 1 8 8z" fill="#fde68a" opacity="0.9" />
  <path d="M36 34h12" stroke="#f97316" stroke-width="4" stroke-linecap="round" />
  <path d="M36 42h16" stroke="#f97316" stroke-width="4" stroke-linecap="round" />
  <path d="M36 50h14" stroke="#ea580c" stroke-width="4" stroke-linecap="round" />
  <path d="M50 34h12" stroke="#fb923c" stroke-width="4" stroke-linecap="round" />
  <path d="M50 42h14" stroke="#fb923c" stroke-width="4" stroke-linecap="round" />
  <path d="M50 50h12" stroke="#fb923c" stroke-width="4" stroke-linecap="round" />
  <circle cx="34" cy="30" r="3" fill="#facc15" />
  <circle cx="62" cy="30" r="2" fill="#f59e0b" />
</svg>
