<svg xmlns="http://www.w3.org/2000/svg" viewBox="0 0 96 96" role="img" aria-labelledby="title">
  <title>Environmental Science</title>
  <defs>
    <linearGradient id="env-bg" x1="0" y1="0" x2="1" y2="1">
      <stop offset="0%" stop-color="#166534" />
      <stop offset="100%" stop-color="#22c55e" />
    </linearGradient>
  </defs>
  <rect x="6" y="6" width="84" height="84" rx="22" fill="url(#env-bg)" />
  <path d="M24 60c12-18 36-18 48 0" fill="none" stroke="#ecfdf5" stroke-width="5" stroke-linecap="round" />
  <path d="M30 44c0-12 8-22 18-22s18 10 18 22" fill="#bbf7d0" opacity="0.9" />
  <path d="M36 44c0-8 6-14 12-14s12 6 12 14" fill="#fefce8" opacity="0.9" />
  <path d="M40 44c0-5 4-9 8-9s8 4 8 9" fill="#22d3ee" opacity="0.8" />
  <circle cx="32" cy="32" r="4" fill="#facc15" />
  <circle cx="60" cy="34" r="4" fill="#f59e0b" />
  <path d="M24 68h48" stroke="#14532d" stroke-width="4" stroke-linecap="round" opacity="0.3" />
</svg>
