<svg xmlns="http://www.w3.org/2000/svg" viewBox="0 0 80 80" role="img" aria-labelledby="title">
  <title>Garden Chefs</title>
  <defs>
    <linearGradient id="garden-bg" x1="0" y1="0" x2="1" y2="1">
      <stop offset="0%" stop-color="#15803d" />
      <stop offset="100%" stop-color="#34d399" />
    </linearGradient>
  </defs>
  <rect x="4" y="4" width="72" height="72" rx="18" fill="url(#garden-bg)" />
  <path d="M16 54c10-4 38-4 48 0" stroke="#0f172a" stroke-opacity="0.2" stroke-width="6" stroke-linecap="round" />
  <ellipse cx="28" cy="42" rx="8" ry="10" fill="#dcfce7" opacity="0.9" />
  <ellipse cx="32" cy="46" rx="6" ry="8" fill="#f97316" opacity="0.9" />
  <circle cx="50" cy="42" r="9" fill="#fde68a" opacity="0.9" />
  <path d="M24 30c0-6 6-12 12-12 5 0 9 4 10 8" fill="none" stroke="#bbf7d0" stroke-width="4" stroke-linecap="round" />
  <path d="M48 30c0-6 6-12 12-12" fill="none" stroke="#bbf7d0" stroke-width="4" stroke-linecap="round" />
  <path d="M30 52l4 10" stroke="#166534" stroke-width="4" stroke-linecap="round" />
  <path d="M52 52l-4 10" stroke="#166534" stroke-width="4" stroke-linecap="round" />
  <circle cx="38" cy="28" r="3" fill="#facc15" />
  <circle cx="56" cy="26" r="3" fill="#f59e0b" />
  <path d="M20 50c6-4 14-4 20 0" stroke="#22c55e" stroke-width="4" stroke-linecap="round" opacity="0.6" />
  <path d="M40 50c6-4 14-4 20 0" stroke="#22c55e" stroke-width="4" stroke-linecap="round" opacity="0.45" />
</svg>
