<svg xmlns="http://www.w3.org/2000/svg" viewBox="0 0 96 96" role="img" aria-labelledby="title">
  <title>Health and Wellness</title>
  <defs>
    <linearGradient id="health-bg" x1="0" y1="0" x2="1" y2="1">
      <stop offset="0%" stop-color="#0f766e" />
      <stop offset="100%" stop-color="#34d399" />
    </linearGradient>
  </defs>
  <rect x="6" y="6" width="84" height="84" rx="22" fill="url(#health-bg)" />
  <path d="M30 46c0-8 6-14 14-14 4 0 8 2 10 5 2-3 6-5 10-5 8 0 14 6 14 14 0 18-24 30-24 30s-24-12-24-30z" fill="#ecfdf5" opacity="0.9" />
  <path d="M48 40v12" stroke="#0f172a" stroke-width="4" stroke-linecap="round" />
  <path d="M42 46h12" stroke="#0f172a" stroke-width="4" stroke-linecap="round" />
  <circle cx="36" cy="34" r="4" fill="#fde68a" />
  <circle cx="60" cy="36" r="4" fill="#f97316" />
  <path d="M28 60c10-6 32-6 42 0" stroke="#0f172a" stroke-width="4" stroke-linecap="round" opacity="0.3" />
</svg>
