<svg xmlns="http://www.w3.org/2000/svg" viewBox="0 0 80 80" role="img" aria-labelledby="title">
  <title>Kitchen Chemistry</title>
  <defs>
    <linearGradient id="chem-bg" x1="0" y1="0" x2="1" y2="1">
      <stop offset="0%" stop-color="#0ea5e9" />
      <stop offset="100%" stop-color="#22d3ee" />
    </linearGradient>
  </defs>
  <rect x="4" y="4" width="72" height="72" rx="18" fill="url(#chem-bg)" />
  <rect x="18" y="46" width="44" height="10" rx="5" fill="#0f172a" opacity="0.2" />
  <path d="M26 24h8l4 20c1 6-5 10-9 10s-10-4-9-10z" fill="#f0f9ff" opacity="0.9" />
  <circle cx="32" cy="28" r="3" fill="#22d3ee" />
  <circle cx="28" cy="34" r="2" fill="#0ea5e9" />
  <path d="M46 22h8l2 24c0.6 6-4 10-8 10s-9-4-8-10z" fill="#f8fafc" opacity="0.85" />
  <circle cx="52" cy="28" r="3" fill="#0ea5e9" />
  <circle cx="48" cy="36" r="2" fill="#38bdf8" />
  <path d="M30 54c6-2 10-2 16 0" stroke="#0f172a" stroke-width="3" stroke-linecap="round" opacity="0.3" />
  <path d="M22 48h36" stroke="#f8fafc" stroke-width="3" stroke-linecap="round" opacity="0.4" />
  <circle cx="26" cy="44" r="1.6" fill="#22d3ee" />
  <circle cx="30" cy="42" r="1.4" fill="#0ea5e9" />
  <circle cx="50" cy="42" r="1.6" fill="#22d3ee" />
  <circle cx="54" cy="44" r="1.4" fill="#38bdf8" />
</svg>
