<svg xmlns="http://www.w3.org/2000/svg" viewBox="0 0 80 80" role="img" aria-labelledby="title">
  <title>Movement Mix</title>
  <defs>
    <linearGradient id="move-bg" x1="0" y1="0" x2="1" y2="1">
      <stop offset="0%" stop-color="#f97316" />
      <stop offset="100%" stop-color="#fb7185" />
    </linearGradient>
  </defs>
  <rect x="4" y="4" width="72" height="72" rx="18" fill="url(#move-bg)" />
  <circle cx="40" cy="54" r="18" fill="#fff" opacity="0.12" />
  <circle cx="40" cy="22" r="8" fill="#fff7ed" opacity="0.9" />
  <path d="M36 30c4-2 12-2 16 0 4 2 4 6 2 10l-4 8" fill="none" stroke="#fff7ed" stroke-width="4" stroke-linecap="round" stroke-linejoin="round" />
  <path d="M40 32l-10 6c-3 2-4 5-3 8l2 6" fill="none" stroke="#fde68a" stroke-width="4" stroke-linecap="round" stroke-linejoin="round" />
  <path d="M32 52l8-6 10 6" fill="none" stroke="#fff" stroke-width="4" stroke-linecap="round" stroke-linejoin="round" opacity="0.85" />
  <path d="M30 58c6-2 14-2 20 0" stroke="#fb7185" stroke-width="5" stroke-linecap="round" opacity="0.5" />
  <circle cx="56" cy="30" r="4" fill="#fde68a" />
  <circle cx="24" cy="44" r="3" fill="#fef3c7" />
</svg>
