<svg xmlns="http://www.w3.org/2000/svg" viewBox="0 0 96 96" role="img" aria-labelledby="title">
  <title>Music Ensemble</title>
  <defs>
    <linearGradient id="music-bg" x1="0" y1="0" x2="1" y2="1">
      <stop offset="0%" stop-color="#6b21a8" />
      <stop offset="100%" stop-color="#a855f7" />
    </linearGradient>
  </defs>
  <rect x="6" y="6" width="84" height="84" rx="20" fill="url(#music-bg)" />
  <path d="M44 28v26c0 6-5 11-11 11s-11-5-11-11 5-11 11-11c2 0 4 0.6 6 1.8" fill="none" stroke="#ede9fe" stroke-width="5" stroke-linecap="round" stroke-linejoin="round" />
  <path d="M56 24v30c0 6 5 11 11 11s11-5 11-11-5-11-11-11c-2 0-4 0.6-6 1.8" fill="none" stroke="#fef3c7" stroke-width="5" stroke-linecap="round" stroke-linejoin="round" opacity="0.9" />
  <circle cx="38" cy="58" r="5" fill="#fbbf24" />
  <circle cx="68" cy="58" r="5" fill="#f472b6" />
  <circle cx="52" cy="34" r="6" fill="#c4b5fd" />
  <path d="M34 44c8 6 28 6 36 0" stroke="#ede9fe" stroke-width="3" stroke-linecap="round" opacity="0.4" />
</svg>
