<svg xmlns="http://www.w3.org/2000/svg" viewBox="0 0 80 80" role="img" aria-labelledby="title">
  <title>Music Circles</title>
  <defs>
    <linearGradient id="music-bg" x1="0" y1="0" x2="1" y2="1">
      <stop offset="0%" stop-color="#7c3aed" />
      <stop offset="100%" stop-color="#a855f7" />
    </linearGradient>
  </defs>
  <rect x="4" y="4" width="72" height="72" rx="18" fill="url(#music-bg)" />
  <circle cx="28" cy="34" r="10" fill="#f5f3ff" opacity="0.85" />
  <circle cx="52" cy="46" r="12" fill="#ede9fe" opacity="0.85" />
  <circle cx="44" cy="28" r="6" fill="#c4b5fd" opacity="0.9" />
  <path d="M44 22v20c0 4-4 8-8 8s-8-4-8-8 4-8 8-8c2 0 4 1 5 2" fill="none" stroke="#ede9fe" stroke-width="4" stroke-linecap="round" stroke-linejoin="round" />
  <path d="M52 24v18c0 4 4 8 8 8s8-4 8-8-4-8-8-8c-2 0-4 1-6 2" fill="none" stroke="#fef3c7" stroke-width="4" stroke-linecap="round" stroke-linejoin="round" opacity="0.9" />
  <circle cx="28" cy="54" r="5" fill="#fbbf24" />
  <circle cx="60" cy="32" r="4" fill="#fb7185" />
  <path d="M24 44c6 6 26 8 36 0" stroke="#fef9c3" stroke-width="3" stroke-linecap="round" opacity="0.4" />
</svg>
