<svg xmlns="http://www.w3.org/2000/svg" viewBox="0 0 80 80" role="img" aria-labelledby="title">
  <title>Storytelling Champs</title>
  <defs>
    <linearGradient id="story-bg" x1="0" y1="0" x2="1" y2="1">
      <stop offset="0%" stop-color="#db2777" />
      <stop offset="100%" stop-color="#f472b6" />
    </linearGradient>
  </defs>
  <rect x="4" y="4" width="72" height="72" rx="18" fill="url(#story-bg)" />
  <path d="M22 24h20a6 6 0 0 1 6 6v24h-20a6 6 0 0 0-6 6V24z" fill="#faf5ff" opacity="0.9" />
  <path d="M58 24H38a6 6 0 0 0-6 6v24h20a6 6 0 0 1 6 6V24z" fill="#fde68a" opacity="0.9" />
  <path d="M30 32h8" stroke="#7c3aed" stroke-width="3" stroke-linecap="round" />
  <path d="M30 38h10" stroke="#7c3aed" stroke-width="3" stroke-linecap="round" />
  <path d="M44 32h8" stroke="#d946ef" stroke-width="3" stroke-linecap="round" />
  <path d="M44 38h10" stroke="#d946ef" stroke-width="3" stroke-linecap="round" />
  <path d="M40 46l4 4 7-7" fill="none" stroke="#2563eb" stroke-width="3" stroke-linecap="round" stroke-linejoin="round" />
  <circle cx="28" cy="28" r="3" fill="#facc15" />
  <circle cx="52" cy="28" r="2" fill="#fcd34d" />
  <circle cx="48" cy="50" r="2" fill="#38bdf8" />
</svg>
