<svg xmlns="http://www.w3.org/2000/svg" viewBox="0 0 80 80" role="img" aria-labelledby="title">
  <title>Wellness Lab</title>
  <defs>
    <linearGradient id="wellness-bg" x1="0" y1="0" x2="1" y2="1">
      <stop offset="0%" stop-color="#6366f1" />
      <stop offset="100%" stop-color="#a5b4fc" />
    </linearGradient>
  </defs>
  <rect x="4" y="4" width="72" height="72" rx="18" fill="url(#wellness-bg)" />
  <circle cx="40" cy="32" r="12" fill="#eef2ff" opacity="0.85" />
  <path d="M28 52c0-8 6-14 12-14s12 6 12 14" fill="#c7d2fe" opacity="0.85" />
  <path d="M24 56c10-4 22-4 32 0" stroke="#312e81" stroke-width="4" stroke-linecap="round" opacity="0.3" />
  <path d="M32 50l4 6" stroke="#eef2ff" stroke-width="3" stroke-linecap="round" opacity="0.7" />
  <path d="M48 50l-4 6" stroke="#eef2ff" stroke-width="3" stroke-linecap="round" opacity="0.7" />
  <path d="M40 20c-8 0-12 6-12 10" fill="none" stroke="#fdf4ff" stroke-width="4" stroke-linecap="round" />
  <path d="M40 20c8 0 12 6 12 10" fill="none" stroke="#fdf4ff" stroke-width="4" stroke-linecap="round" />
  <circle cx="40" cy="32" r="4" fill="#fde68a" />
  <circle cx="32" cy="28" r="2" fill="#fb7185" />
  <circle cx="48" cy="28" r="2" fill="#34d399" />
  <path d="M26 44c8-4 20-4 28 0" stroke="#1e1b4b" stroke-width="3" stroke-linecap="round" opacity="0.25" />
</svg>
